<svg id="visual" viewBox="0 0 900 600" width="900" height="600" xmlns="http://www.w3.org/2000/svg" xmlns:xlink="http://www.w3.org/1999/xlink" version="1.1"><rect x="0" y="0" width="900" height="600" fill="#ffffff"></rect><defs><linearGradient id="grad1_0" x1="33.3%" y1="0%" x2="100%" y2="100%"><stop offset="20%" stop-color="#572dff" stop-opacity="1"></stop><stop offset="80%" stop-color="#572dff" stop-opacity="1"></stop></linearGradient></defs><defs><linearGradient id="grad1_1" x1="33.3%" y1="0%" x2="100%" y2="100%"><stop offset="20%" stop-color="#572dff" stop-opacity="1"></stop><stop offset="80%" stop-color="#895aff" stop-opacity="1"></stop></linearGradient></defs><defs><linearGradient id="grad1_2" x1="33.3%" y1="0%" x2="100%" y2="100%"><stop offset="20%" stop-color="#ae83ff" stop-opacity="1"></stop><stop offset="80%" stop-color="#895aff" stop-opacity="1"></stop></linearGradient></defs><defs><linearGradient id="grad1_3" x1="33.3%" y1="0%" x2="100%" y2="100%"><stop offset="20%" stop-color="#ae83ff" stop-opacity="1"></stop><stop offset="80%" stop-color="#ccacff" stop-opacity="1"></stop></linearGradient></defs><defs><linearGradient id="grad1_4" x1="33.3%" y1="0%" x2="100%" y2="100%"><stop offset="20%" stop-color="#e7d5ff" stop-opacity="1"></stop><stop offset="80%" stop-color="#ccacff" stop-opacity="1"></stop></linearGradient></defs><defs><linearGradient id="grad1_5" x1="33.3%" y1="0%" x2="100%" y2="100%"><stop offset="20%" stop-color="#e7d5ff" stop-opacity="1"></stop><stop offset="80%" stop-color="#ffffff" stop-opacity="1"></stop></linearGradient></defs><defs><linearGradient id="grad2_0" x1="0%" y1="0%" x2="66.7%" y2="100%"><stop offset="20%" stop-color="#572dff" stop-opacity="1"></stop><stop offset="80%" stop-color="#572dff" stop-opacity="1"></stop></linearGradient></defs><defs><linearGradient id="grad2_1" x1="0%" y1="0%" x2="66.7%" y2="100%"><stop offset="20%" stop-color="#895aff" stop-opacity="1"></stop><stop offset="80%" stop-color="#572dff" stop-opacity="1"></stop></linearGradient></defs><defs><linearGradient id="grad2_2" x1="0%" y1="0%" x2="66.7%" y2="100%"><stop offset="20%" stop-color="#895aff" stop-opacity="1"></stop><stop offset="80%" stop-color="#ae83ff" stop-opacity="1"></stop></linearGradient></defs><defs><linearGradient id="grad2_3" x1="0%" y1="0%" x2="66.7%" y2="100%"><stop offset="20%" stop-color="#ccacff" stop-opacity="1"></stop><stop offset="80%" stop-color="#ae83ff" stop-opacity="1"></stop></linearGradient></defs><defs><linearGradient id="grad2_4" x1="0%" y1="0%" x2="66.7%" y2="100%"><stop offset="20%" stop-color="#ccacff" stop-opacity="1"></stop><stop offset="80%" stop-color="#e7d5ff" stop-opacity="1"></stop></linearGradient></defs><defs><linearGradient id="grad2_5" x1="0%" y1="0%" x2="66.7%" y2="100%"><stop offset="20%" stop-color="#ffffff" stop-opacity="1"></stop><stop offset="80%" stop-color="#e7d5ff" stop-opacity="1"></stop></linearGradient></defs><g transform="translate(900, 0)"><path d="M0 405.6C-47.1 386.1 -94.2 366.6 -145 350.2C-195.8 333.7 -250.4 320.3 -286.8 286.8C-323.3 253.3 -341.7 199.6 -358.5 148.5C-375.3 97.3 -390.4 48.7 -405.6 0L0 0Z" fill="#f3eaff"></path><path d="M0 338C-39.3 321.8 -78.5 305.5 -120.9 291.8C-163.2 278.1 -208.6 266.9 -239 239C-269.4 211.1 -284.7 166.4 -298.7 123.7C-312.7 81.1 -325.4 40.6 -338 0L0 0Z" fill="#dac1ff"></path><path d="M0 270.4C-31.4 257.4 -62.8 244.4 -96.7 233.4C-130.6 222.5 -166.9 213.6 -191.2 191.2C-215.5 168.9 -227.8 133.1 -239 99C-250.2 64.9 -260.3 32.4 -270.4 0L0 0Z" fill="#bd98ff"></path><path d="M0 202.8C-23.6 193.1 -47.1 183.3 -72.5 175.1C-97.9 166.9 -125.2 160.2 -143.4 143.4C-161.6 126.7 -170.8 99.8 -179.2 74.2C-187.6 48.7 -195.2 24.3 -202.8 0L0 0Z" fill="#9c6fff"></path><path d="M0 135.2C-15.7 128.7 -31.4 122.2 -48.3 116.7C-65.3 111.2 -83.5 106.8 -95.6 95.6C-107.8 84.4 -113.9 66.5 -119.5 49.5C-125.1 32.4 -130.1 16.2 -135.2 0L0 0Z" fill="#7345ff"></path><path d="M0 67.6C-7.9 64.4 -15.7 61.1 -24.2 58.4C-32.6 55.6 -41.7 53.4 -47.8 47.8C-53.9 42.2 -56.9 33.3 -59.7 24.7C-62.5 16.2 -65.1 8.1 -67.6 0L0 0Z" fill="#572dff"></path></g><g transform="translate(0, 600)"><path d="M0 -405.6C56.1 -403.5 112.2 -401.3 155.2 -374.7C198.2 -348.2 228 -297.3 254.6 -254.6C281.1 -211.8 304.3 -177.3 328.9 -136.2C353.5 -95.2 379.6 -47.6 405.6 0L0 0Z" fill="#f3eaff"></path><path d="M0 -338C46.8 -336.2 93.5 -334.4 129.4 -312.3C165.2 -290.2 190 -247.7 212.1 -212.1C234.2 -176.5 253.6 -147.7 274.1 -113.5C294.6 -79.3 316.3 -39.7 338 0L0 0Z" fill="#dac1ff"></path><path d="M0 -270.4C37.4 -269 74.8 -267.5 103.5 -249.8C132.1 -232.1 152 -198.2 169.7 -169.7C187.4 -141.2 202.9 -118.2 219.3 -90.8C235.7 -63.4 253.1 -31.7 270.4 0L0 0Z" fill="#bd98ff"></path><path d="M0 -202.8C28.1 -201.7 56.1 -200.6 77.6 -187.4C99.1 -174.1 114 -148.6 127.3 -127.3C140.5 -105.9 152.1 -88.6 164.5 -68.1C176.8 -47.6 189.8 -23.8 202.8 0L0 0Z" fill="#9c6fff"></path><path d="M0 -135.2C18.7 -134.5 37.4 -133.8 51.7 -124.9C66.1 -116.1 76 -99.1 84.9 -84.9C93.7 -70.6 101.4 -59.1 109.6 -45.4C117.8 -31.7 126.5 -15.9 135.2 0L0 0Z" fill="#7345ff"></path><path d="M0 -67.6C9.4 -67.2 18.7 -66.9 25.9 -62.5C33 -58 38 -49.5 42.4 -42.4C46.8 -35.3 50.7 -29.5 54.8 -22.7C58.9 -15.9 63.3 -7.9 67.6 0L0 0Z" fill="#572dff"></path></g></svg>