<svg id="visual" viewBox="0 0 900 600" width="900" height="600" xmlns="http://www.w3.org/2000/svg" xmlns:xlink="http://www.w3.org/1999/xlink" version="1.1"><path d="M845 600L848 590.8C851 581.7 857 563.3 861.5 545.2C866 527 869 509 870.5 490.8C872 472.7 872 454.3 872 436.2C872 418 872 400 869 381.8C866 363.7 860 345.3 857 327.2C854 309 854 291 855.5 272.8C857 254.7 860 236.3 857 218.2C854 200 845 182 845 163.8C845 145.7 854 127.3 857 109.2C860 91 857 73 857 54.8C857 36.7 860 18.3 861.5 9.2L863 0L900 0L900 9.2C900 18.3 900 36.7 900 54.8C900 73 900 91 900 109.2C900 127.3 900 145.7 900 163.8C900 182 900 200 900 218.2C900 236.3 900 254.7 900 272.8C900 291 900 309 900 327.2C900 345.3 900 363.7 900 381.8C900 400 900 418 900 436.2C900 454.3 900 472.7 900 490.8C900 509 900 527 900 545.2C900 563.3 900 581.7 900 590.8L900 600Z" fill="#c5b7ff"></path><path d="M791 600L797 590.8C803 581.7 815 563.3 821 545.2C827 527 827 509 830 490.8C833 472.7 839 454.3 836 436.2C833 418 821 400 813.5 381.8C806 363.7 803 345.3 803 327.2C803 309 806 291 807.5 272.8C809 254.7 809 236.3 803 218.2C797 200 785 182 788 163.8C791 145.7 809 127.3 813.5 109.2C818 91 809 73 804.5 54.8C800 36.7 800 18.3 800 9.2L800 0L864 0L862.5 9.2C861 18.3 858 36.7 858 54.8C858 73 861 91 858 109.2C855 127.3 846 145.7 846 163.8C846 182 855 200 858 218.2C861 236.3 858 254.7 856.5 272.8C855 291 855 309 858 327.2C861 345.3 867 363.7 870 381.8C873 400 873 418 873 436.2C873 454.3 873 472.7 871.5 490.8C870 509 867 527 862.5 545.2C858 563.3 852 581.7 849 590.8L846 600Z" fill="#d4c9ff"></path><path d="M755 600L758 590.8C761 581.7 767 563.3 774.5 545.2C782 527 791 509 797 490.8C803 472.7 806 454.3 803 436.2C800 418 791 400 785 381.8C779 363.7 776 345.3 774.5 327.2C773 309 773 291 771.5 272.8C770 254.7 767 236.3 761 218.2C755 200 746 182 752 163.8C758 145.7 779 127.3 780.5 109.2C782 91 764 73 759.5 54.8C755 36.7 764 18.3 768.5 9.2L773 0L801 0L801 9.2C801 18.3 801 36.7 805.5 54.8C810 73 819 91 814.5 109.2C810 127.3 792 145.7 789 163.8C786 182 798 200 804 218.2C810 236.3 810 254.7 808.5 272.8C807 291 804 309 804 327.2C804 345.3 807 363.7 814.5 381.8C822 400 834 418 837 436.2C840 454.3 834 472.7 831 490.8C828 509 828 527 822 545.2C816 563.3 804 581.7 798 590.8L792 600Z" fill="#e3dbff"></path><path d="M611 600L614 590.8C617 581.7 623 563.3 644 545.2C665 527 701 509 707 490.8C713 472.7 689 454.3 686 436.2C683 418 701 400 699.5 381.8C698 363.7 677 345.3 665 327.2C653 309 650 291 654.5 272.8C659 254.7 671 236.3 672.5 218.2C674 200 665 182 659 163.8C653 145.7 650 127.3 639.5 109.2C629 91 611 73 608 54.8C605 36.7 617 18.3 623 9.2L629 0L774 0L769.5 9.2C765 18.3 756 36.7 760.5 54.8C765 73 783 91 781.5 109.2C780 127.3 759 145.7 753 163.8C747 182 756 200 762 218.2C768 236.3 771 254.7 772.5 272.8C774 291 774 309 775.5 327.2C777 345.3 780 363.7 786 381.8C792 400 801 418 804 436.2C807 454.3 804 472.7 798 490.8C792 509 783 527 775.5 545.2C768 563.3 762 581.7 759 590.8L756 600Z" fill="#f1edff"></path><path d="M503 600L500 590.8C497 581.7 491 563.3 504.5 545.2C518 527 551 509 551 490.8C551 472.7 518 454.3 510.5 436.2C503 418 521 400 518 381.8C515 363.7 491 345.3 474.5 327.2C458 309 449 291 455 272.8C461 254.7 482 236.3 498.5 218.2C515 200 527 182 527 163.8C527 145.7 515 127.3 492.5 109.2C470 91 437 73 422 54.8C407 36.7 410 18.3 411.5 9.2L413 0L630 0L624 9.2C618 18.3 606 36.7 609 54.8C612 73 630 91 640.5 109.2C651 127.3 654 145.7 660 163.8C666 182 675 200 673.5 218.2C672 236.3 660 254.7 655.5 272.8C651 291 654 309 666 327.2C678 345.3 699 363.7 700.5 381.8C702 400 684 418 687 436.2C690 454.3 714 472.7 708 490.8C702 509 666 527 645 545.2C624 563.3 618 581.7 615 590.8L612 600Z" fill="#ffffff"></path><path d="M449 600L441.5 590.8C434 581.7 419 563.3 432.5 545.2C446 527 488 509 494 490.8C500 472.7 470 454.3 459.5 436.2C449 418 458 400 450.5 381.8C443 363.7 419 345.3 402.5 327.2C386 309 377 291 389 272.8C401 254.7 434 236.3 453.5 218.2C473 200 479 182 477.5 163.8C476 145.7 467 127.3 441.5 109.2C416 91 374 73 354.5 54.8C335 36.7 338 18.3 339.5 9.2L341 0L414 0L412.5 9.2C411 18.3 408 36.7 423 54.8C438 73 471 91 493.5 109.2C516 127.3 528 145.7 528 163.8C528 182 516 200 499.5 218.2C483 236.3 462 254.7 456 272.8C450 291 459 309 475.5 327.2C492 345.3 516 363.7 519 381.8C522 400 504 418 511.5 436.2C519 454.3 552 472.7 552 490.8C552 509 519 527 505.5 545.2C492 563.3 498 581.7 501 590.8L504 600Z" fill="#ffffff"></path><path d="M251 600L245 590.8C239 581.7 227 563.3 230 545.2C233 527 251 509 261.5 490.8C272 472.7 275 454.3 269 436.2C263 418 248 400 248 381.8C248 363.7 263 345.3 267.5 327.2C272 309 266 291 264.5 272.8C263 254.7 266 236.3 263 218.2C260 200 251 182 254 163.8C257 145.7 272 127.3 261.5 109.2C251 91 215 73 203 54.8C191 36.7 203 18.3 209 9.2L215 0L342 0L340.5 9.2C339 18.3 336 36.7 355.5 54.8C375 73 417 91 442.5 109.2C468 127.3 477 145.7 478.5 163.8C480 182 474 200 454.5 218.2C435 236.3 402 254.7 390 272.8C378 291 387 309 403.5 327.2C420 345.3 444 363.7 451.5 381.8C459 400 450 418 460.5 436.2C471 454.3 501 472.7 495 490.8C489 509 447 527 433.5 545.2C420 563.3 435 581.7 442.5 590.8L450 600Z" fill="#ffffff"></path><path d="M152 600L149 590.8C146 581.7 140 563.3 140 545.2C140 527 146 509 152 490.8C158 472.7 164 454.3 165.5 436.2C167 418 164 400 165.5 381.8C167 363.7 173 345.3 177.5 327.2C182 309 185 291 182 272.8C179 254.7 170 236.3 159.5 218.2C149 200 137 182 138.5 163.8C140 145.7 155 127.3 153.5 109.2C152 91 134 73 132.5 54.8C131 36.7 146 18.3 153.5 9.2L161 0L216 0L210 9.2C204 18.3 192 36.7 204 54.8C216 73 252 91 262.5 109.2C273 127.3 258 145.7 255 163.8C252 182 261 200 264 218.2C267 236.3 264 254.7 265.5 272.8C267 291 273 309 268.5 327.2C264 345.3 249 363.7 249 381.8C249 400 264 418 270 436.2C276 454.3 273 472.7 262.5 490.8C252 509 234 527 231 545.2C228 563.3 240 581.7 246 590.8L252 600Z" fill="#f1edff"></path><path d="M80 600L80 590.8C80 581.7 80 563.3 83 545.2C86 527 92 509 96.5 490.8C101 472.7 104 454.3 107 436.2C110 418 113 400 117.5 381.8C122 363.7 128 345.3 128 327.2C128 309 122 291 117.5 272.8C113 254.7 110 236.3 104 218.2C98 200 89 182 90.5 163.8C92 145.7 104 127.3 102.5 109.2C101 91 86 73 83 54.8C80 36.7 89 18.3 93.5 9.2L98 0L162 0L154.5 9.2C147 18.3 132 36.7 133.5 54.8C135 73 153 91 154.5 109.2C156 127.3 141 145.7 139.5 163.8C138 182 150 200 160.5 218.2C171 236.3 180 254.7 183 272.8C186 291 183 309 178.5 327.2C174 345.3 168 363.7 166.5 381.8C165 400 168 418 166.5 436.2C165 454.3 159 472.7 153 490.8C147 509 141 527 141 545.2C141 563.3 147 581.7 150 590.8L153 600Z" fill="#e3dbff"></path><path d="M44 600L42.5 590.8C41 581.7 38 563.3 38 545.2C38 527 41 509 42.5 490.8C44 472.7 44 454.3 42.5 436.2C41 418 38 400 39.5 381.8C41 363.7 47 345.3 47 327.2C47 309 41 291 39.5 272.8C38 254.7 41 236.3 41 218.2C41 200 38 182 39.5 163.8C41 145.7 47 127.3 47 109.2C47 91 41 73 38 54.8C35 36.7 35 18.3 35 9.2L35 0L99 0L94.5 9.2C90 18.3 81 36.7 84 54.8C87 73 102 91 103.5 109.2C105 127.3 93 145.7 91.5 163.8C90 182 99 200 105 218.2C111 236.3 114 254.7 118.5 272.8C123 291 129 309 129 327.2C129 345.3 123 363.7 118.5 381.8C114 400 111 418 108 436.2C105 454.3 102 472.7 97.5 490.8C93 509 87 527 84 545.2C81 563.3 81 581.7 81 590.8L81 600Z" fill="#d4c9ff"></path><path d="M0 600L0 590.8C0 581.7 0 563.3 0 545.2C0 527 0 509 0 490.8C0 472.7 0 454.3 0 436.2C0 418 0 400 0 381.8C0 363.7 0 345.3 0 327.2C0 309 0 291 0 272.8C0 254.7 0 236.3 0 218.2C0 200 0 182 0 163.8C0 145.7 0 127.3 0 109.2C0 91 0 73 0 54.8C0 36.7 0 18.3 0 9.2L0 0L36 0L36 9.2C36 18.3 36 36.7 39 54.8C42 73 48 91 48 109.2C48 127.3 42 145.7 40.5 163.8C39 182 42 200 42 218.2C42 236.3 39 254.7 40.5 272.8C42 291 48 309 48 327.2C48 345.3 42 363.7 40.5 381.8C39 400 42 418 43.5 436.2C45 454.3 45 472.7 43.5 490.8C42 509 39 527 39 545.2C39 563.3 42 581.7 43.5 590.8L45 600Z" fill="#c5b7ff"></path></svg>