<svg id="visual" viewBox="0 0 900 900" width="900" height="900" xmlns="http://www.w3.org/2000/svg" xmlns:xlink="http://www.w3.org/1999/xlink" version="1.1"><rect x="0" y="0" width="900" height="900" fill="#ffffff"></rect><defs><linearGradient id="grad1_0" x1="0%" y1="0%" x2="100%" y2="100%"><stop offset="30%" stop-color="#ff6c44" stop-opacity="1"></stop><stop offset="70%" stop-color="#ff6c44" stop-opacity="1"></stop></linearGradient></defs><defs><linearGradient id="grad1_1" x1="0%" y1="0%" x2="100%" y2="100%"><stop offset="30%" stop-color="#ff6c44" stop-opacity="1"></stop><stop offset="70%" stop-color="#ff9371" stop-opacity="1"></stop></linearGradient></defs><defs><linearGradient id="grad1_2" x1="0%" y1="0%" x2="100%" y2="100%"><stop offset="30%" stop-color="#ffb89f" stop-opacity="1"></stop><stop offset="70%" stop-color="#ff9371" stop-opacity="1"></stop></linearGradient></defs><defs><linearGradient id="grad1_3" x1="0%" y1="0%" x2="100%" y2="100%"><stop offset="30%" stop-color="#ffb89f" stop-opacity="1"></stop><stop offset="70%" stop-color="#ffdbce" stop-opacity="1"></stop></linearGradient></defs><defs><linearGradient id="grad1_4" x1="0%" y1="0%" x2="100%" y2="100%"><stop offset="30%" stop-color="#ffffff" stop-opacity="1"></stop><stop offset="70%" stop-color="#ffdbce" stop-opacity="1"></stop></linearGradient></defs><defs><linearGradient id="grad2_0" x1="0%" y1="0%" x2="100%" y2="100%"><stop offset="30%" stop-color="#ff6c44" stop-opacity="1"></stop><stop offset="70%" stop-color="#ff6c44" stop-opacity="1"></stop></linearGradient></defs><defs><linearGradient id="grad2_1" x1="0%" y1="0%" x2="100%" y2="100%"><stop offset="30%" stop-color="#ff9371" stop-opacity="1"></stop><stop offset="70%" stop-color="#ff6c44" stop-opacity="1"></stop></linearGradient></defs><defs><linearGradient id="grad2_2" x1="0%" y1="0%" x2="100%" y2="100%"><stop offset="30%" stop-color="#ff9371" stop-opacity="1"></stop><stop offset="70%" stop-color="#ffb89f" stop-opacity="1"></stop></linearGradient></defs><defs><linearGradient id="grad2_3" x1="0%" y1="0%" x2="100%" y2="100%"><stop offset="30%" stop-color="#ffdbce" stop-opacity="1"></stop><stop offset="70%" stop-color="#ffb89f" stop-opacity="1"></stop></linearGradient></defs><defs><linearGradient id="grad2_4" x1="0%" y1="0%" x2="100%" y2="100%"><stop offset="30%" stop-color="#ffdbce" stop-opacity="1"></stop><stop offset="70%" stop-color="#ffffff" stop-opacity="1"></stop></linearGradient></defs><g transform="translate(900, 0)"><path d="M0 477.3C-91.4 469.4 -182.7 461.4 -238.6 413.4C-294.6 365.3 -315.1 277.1 -349 201.5C-382.9 125.9 -430.1 63 -477.3 0L0 0Z" fill="#ffede6"></path><path d="M0 381.8C-73.1 375.5 -146.2 369.1 -190.9 330.7C-235.7 292.2 -252.1 221.7 -279.2 161.2C-306.3 100.7 -344.1 50.4 -381.8 0L0 0Z" fill="#ffcab6"></path><path d="M0 286.4C-54.8 281.6 -109.6 276.9 -143.2 248C-176.8 219.2 -189.1 166.2 -209.4 120.9C-229.7 75.6 -258.1 37.8 -286.4 0L0 0Z" fill="#ffa587"></path><path d="M0 190.9C-36.5 187.7 -73.1 184.6 -95.5 165.3C-117.8 146.1 -126.1 110.8 -139.6 80.6C-153.2 50.4 -172 25.2 -190.9 0L0 0Z" fill="#ff805a"></path><path d="M0 95.5C-18.3 93.9 -36.5 92.3 -47.7 82.7C-58.9 73.1 -63 55.4 -69.8 40.3C-76.6 25.2 -86 12.6 -95.5 0L0 0Z" fill="#ff6c44"></path></g><g transform="translate(0, 900)"><path d="M0 -477.3C64.8 -433.3 129.7 -389.3 205 -355.1C280.3 -320.8 366.2 -296.2 413.4 -238.6C460.5 -181.1 468.9 -90.5 477.3 0L0 0Z" fill="#ffede6"></path><path d="M0 -381.8C51.9 -346.7 103.7 -311.5 164 -284.1C224.3 -256.6 293 -237 330.7 -190.9C368.4 -144.9 375.1 -72.4 381.8 0L0 0Z" fill="#ffcab6"></path><path d="M0 -286.4C38.9 -260 77.8 -233.6 123 -213C168.2 -192.5 219.7 -177.7 248 -143.2C276.3 -108.7 281.3 -54.3 286.4 0L0 0Z" fill="#ffa587"></path><path d="M0 -190.9C25.9 -173.3 51.9 -155.7 82 -142C112.1 -128.3 146.5 -118.5 165.3 -95.5C184.2 -72.4 187.6 -36.2 190.9 0L0 0Z" fill="#ff805a"></path><path d="M0 -95.5C13 -86.7 25.9 -77.9 41 -71C56.1 -64.2 73.2 -59.2 82.7 -47.7C92.1 -36.2 93.8 -18.1 95.5 0L0 0Z" fill="#ff6c44"></path></g></svg>