<svg id="visual" viewBox="0 0 900 900" width="900" height="900" xmlns="http://www.w3.org/2000/svg" xmlns:xlink="http://www.w3.org/1999/xlink" version="1.1"><rect x="0" y="0" width="900" height="900" fill="#ffffff"></rect><defs><linearGradient id="grad1_0" x1="0%" y1="0%" x2="100%" y2="100%"><stop offset="30%" stop-color="#572dff" stop-opacity="1"></stop><stop offset="70%" stop-color="#572dff" stop-opacity="1"></stop></linearGradient></defs><defs><linearGradient id="grad1_1" x1="0%" y1="0%" x2="100%" y2="100%"><stop offset="30%" stop-color="#572dff" stop-opacity="1"></stop><stop offset="70%" stop-color="#895aff" stop-opacity="1"></stop></linearGradient></defs><defs><linearGradient id="grad1_2" x1="0%" y1="0%" x2="100%" y2="100%"><stop offset="30%" stop-color="#ae83ff" stop-opacity="1"></stop><stop offset="70%" stop-color="#895aff" stop-opacity="1"></stop></linearGradient></defs><defs><linearGradient id="grad1_3" x1="0%" y1="0%" x2="100%" y2="100%"><stop offset="30%" stop-color="#ae83ff" stop-opacity="1"></stop><stop offset="70%" stop-color="#ccacff" stop-opacity="1"></stop></linearGradient></defs><defs><linearGradient id="grad1_4" x1="0%" y1="0%" x2="100%" y2="100%"><stop offset="30%" stop-color="#e7d5ff" stop-opacity="1"></stop><stop offset="70%" stop-color="#ccacff" stop-opacity="1"></stop></linearGradient></defs><defs><linearGradient id="grad1_5" x1="0%" y1="0%" x2="100%" y2="100%"><stop offset="30%" stop-color="#e7d5ff" stop-opacity="1"></stop><stop offset="70%" stop-color="#ffffff" stop-opacity="1"></stop></linearGradient></defs><defs><linearGradient id="grad2_0" x1="0%" y1="0%" x2="100%" y2="100%"><stop offset="30%" stop-color="#572dff" stop-opacity="1"></stop><stop offset="70%" stop-color="#572dff" stop-opacity="1"></stop></linearGradient></defs><defs><linearGradient id="grad2_1" x1="0%" y1="0%" x2="100%" y2="100%"><stop offset="30%" stop-color="#895aff" stop-opacity="1"></stop><stop offset="70%" stop-color="#572dff" stop-opacity="1"></stop></linearGradient></defs><defs><linearGradient id="grad2_2" x1="0%" y1="0%" x2="100%" y2="100%"><stop offset="30%" stop-color="#895aff" stop-opacity="1"></stop><stop offset="70%" stop-color="#ae83ff" stop-opacity="1"></stop></linearGradient></defs><defs><linearGradient id="grad2_3" x1="0%" y1="0%" x2="100%" y2="100%"><stop offset="30%" stop-color="#ccacff" stop-opacity="1"></stop><stop offset="70%" stop-color="#ae83ff" stop-opacity="1"></stop></linearGradient></defs><defs><linearGradient id="grad2_4" x1="0%" y1="0%" x2="100%" y2="100%"><stop offset="30%" stop-color="#ccacff" stop-opacity="1"></stop><stop offset="70%" stop-color="#e7d5ff" stop-opacity="1"></stop></linearGradient></defs><defs><linearGradient id="grad2_5" x1="0%" y1="0%" x2="100%" y2="100%"><stop offset="30%" stop-color="#ffffff" stop-opacity="1"></stop><stop offset="70%" stop-color="#e7d5ff" stop-opacity="1"></stop></linearGradient></defs><g transform="translate(900, 0)"><path d="M0 477.3C-57.5 452 -115.1 426.7 -165.3 399.1C-215.6 371.6 -258.6 341.8 -307.6 307.6C-356.6 273.4 -411.7 234.7 -441 182.7C-470.3 130.6 -473.8 65.3 -477.3 0L0 0Z" fill="#f3eaff"></path><path d="M0 397.7C-47.9 376.6 -95.9 355.5 -137.8 332.6C-179.6 309.6 -215.5 284.8 -256.3 256.3C-297.2 227.8 -343.1 195.6 -367.5 152.2C-391.9 108.9 -394.8 54.4 -397.7 0L0 0Z" fill="#dac1ff"></path><path d="M0 318.2C-38.4 301.3 -76.7 284.4 -110.2 266.1C-143.7 247.7 -172.4 227.9 -205.1 205.1C-237.7 182.2 -274.4 156.4 -294 121.8C-313.5 87.1 -315.9 43.5 -318.2 0L0 0Z" fill="#bd98ff"></path><path d="M0 238.6C-28.8 226 -57.5 213.3 -82.7 199.6C-107.8 185.8 -129.3 170.9 -153.8 153.8C-178.3 136.7 -205.8 117.3 -220.5 91.3C-235.1 65.3 -236.9 32.7 -238.6 0L0 0Z" fill="#9c6fff"></path><path d="M0 159.1C-19.2 150.7 -38.4 142.2 -55.1 133C-71.9 123.9 -86.2 113.9 -102.5 102.5C-118.9 91.1 -137.2 78.2 -147 60.9C-156.8 43.5 -157.9 21.8 -159.1 0L0 0Z" fill="#7345ff"></path><path d="M0 79.5C-9.6 75.3 -19.2 71.1 -27.6 66.5C-35.9 61.9 -43.1 57 -51.3 51.3C-59.4 45.6 -68.6 39.1 -73.5 30.4C-78.4 21.8 -79 10.9 -79.5 0L0 0Z" fill="#572dff"></path></g><g transform="translate(0, 900)"><path d="M0 -477.3C46.7 -435.9 93.3 -394.6 156.9 -378.8C220.5 -363 301 -372.7 337.5 -337.5C374 -302.3 366.5 -222.2 382.5 -158.4C398.5 -94.7 437.9 -47.3 477.3 0L0 0Z" fill="#f3eaff"></path><path d="M0 -397.7C38.9 -363.3 77.8 -328.8 130.8 -315.7C183.7 -302.5 250.8 -310.6 281.3 -281.3C311.7 -251.9 305.4 -185.1 318.7 -132C332 -78.9 364.9 -39.5 397.7 0L0 0Z" fill="#dac1ff"></path><path d="M0 -318.2C31.1 -290.6 62.2 -263.1 104.6 -252.5C147 -242 200.7 -248.5 225 -225C249.3 -201.5 244.3 -148.1 255 -105.6C265.6 -63.1 291.9 -31.6 318.2 0L0 0Z" fill="#bd98ff"></path><path d="M0 -238.6C23.3 -218 46.7 -197.3 78.5 -189.4C110.2 -181.5 150.5 -186.4 168.8 -168.7C187 -151.1 183.3 -111.1 191.2 -79.2C199.2 -47.3 218.9 -23.7 238.6 0L0 0Z" fill="#9c6fff"></path><path d="M0 -159.1C15.6 -145.3 31.1 -131.5 52.3 -126.3C73.5 -121 100.3 -124.2 112.5 -112.5C124.7 -100.8 122.2 -74.1 127.5 -52.8C132.8 -31.6 146 -15.8 159.1 0L0 0Z" fill="#7345ff"></path><path d="M0 -79.5C7.8 -72.7 15.6 -65.8 26.2 -63.1C36.7 -60.5 50.2 -62.1 56.3 -56.3C62.3 -50.4 61.1 -37 63.7 -26.4C66.4 -15.8 73 -7.9 79.5 0L0 0Z" fill="#572dff"></path></g></svg>